<svg width="22" height="30" viewBox="0 0 22 30" fill="none" xmlns="http://www.w3.org/2000/svg">
<path d="M21.2783 20.6033V5.2657C21.2783 2.3574 18.9214 0 16.0126 0H5.2657C2.35799 0 0 2.3574 0 5.2657V20.6033C0 22.808 1.60447 24.6451 3.70717 25.0107L0.404824 30H3.34096L4.69635 27.9515H16.5831L17.9384 30H20.874L17.5723 25.0107C19.6744 24.6446 21.2783 22.808 21.2783 20.6033ZM6.07951 2.36414H15.1988V3.88406H6.07951V2.36414ZM3.33574 7.27652C3.33574 6.61535 3.87111 6.07898 4.53229 6.07898H16.7465C17.4072 6.07898 17.9435 6.61535 17.9435 7.27652V12.3277C17.9435 12.9888 17.4071 13.5247 16.7465 13.5247H4.53234C3.87117 13.5247 3.3358 12.9888 3.3358 12.3277V7.27652H3.33574ZM4.47557 21.9143C3.70459 21.9143 3.07951 21.2892 3.07951 20.5187C3.07951 19.7472 3.70459 19.1221 4.47557 19.1221C5.2466 19.1221 5.87168 19.7471 5.87168 20.5187C5.87168 21.2892 5.2466 21.9143 4.47557 21.9143ZM5.57771 26.6198L6.59783 25.0778H14.681L15.7011 26.6198H5.57771ZM16.8033 21.9143C16.0323 21.9143 15.4072 21.2892 15.4072 20.5187C15.4072 19.7472 16.0323 19.1221 16.8033 19.1221C17.5743 19.1221 18.1994 19.7471 18.1994 20.5187C18.1994 21.2892 17.5743 21.9143 16.8033 21.9143Z" fill="#3A5A40"/>
</svg>
