<svg width="19" height="30" viewBox="0 0 19 30" fill="none" xmlns="http://www.w3.org/2000/svg">
<path d="M10.7919 5.56359C12.3281 5.56359 13.5734 4.31824 13.5734 2.7815C13.5734 1.24535 12.3281 0 10.7919 0C9.25512 0 8.00977 1.24535 8.00977 2.78156C8.00977 4.31824 9.25512 5.56359 10.7919 5.56359Z" fill="#3A5A40"/>
<path d="M18.3542 13.8734L15.168 12.1982L13.8251 9.43923C13.148 8.04739 11.8506 7.05962 10.3283 6.77679L8.94662 6.5198C8.25175 6.39106 7.53386 6.48382 6.89425 6.78593L2.87062 8.68589C2.42367 8.89677 2.07058 9.2638 1.87634 9.7172L0.0869477 13.8954C-0.0267828 14.161 -0.0289508 14.4609 0.0805023 14.7275C0.189955 14.9948 0.402417 15.2073 0.669135 15.3167L0.70933 15.3328C1.24265 15.5511 1.85378 15.3103 2.09531 14.7871L3.73769 11.2302L6.33738 10.39L3.76136 21.8386L1.25238 28.0944C1.11339 28.441 1.12898 28.83 1.29427 29.1643C1.45951 29.4991 1.75939 29.7475 2.11892 29.8479L2.22732 29.8779C2.80412 30.0389 3.41636 29.7894 3.71677 29.271L6.69046 24.1345L8.46216 20.619L11.6955 24.1872L14.0838 29.247C14.3531 29.8173 14.99 30.1161 15.6006 29.9579L15.6274 29.9504C15.9821 29.8586 16.2815 29.6231 16.4553 29.3006C16.6276 28.9781 16.6587 28.5977 16.5396 28.2516L14.7824 23.158C14.5356 22.4417 14.1697 21.7726 13.7001 21.1781L10.8467 17.405L11.8935 11.9605L13.2446 13.677C13.4115 13.8894 13.6277 14.059 13.8739 14.1707L17.4281 15.7754C17.6852 15.8914 17.9781 15.8984 18.2405 15.7948C18.5029 15.6912 18.7121 15.4858 18.8205 15.2255L18.8318 15.1981C19.0399 14.6997 18.8323 14.125 18.3542 13.8734Z" fill="#3A5A40"/>
</svg>
